<svg xmlns="http://www.w3.org/2000/svg" height="60" width="60" viewBox="0 0 60 60">
<svg xmlns="http://www.w3.org/2000/svg" height="30" width="30" viewBox="0 0 60 60"><path d="M14.5 29.5Q12.5 27.65 11.55 25.025Q10.6 22.4 10.6 20Q10.6 17.6 11.55 14.975Q12.5 12.35 14.5 10.5L16.25 12.25Q14.8 13.7 13.95 15.875Q13.1 18.05 13.1 20Q13.1 21.75 13.975 23.975Q14.85 26.2 16.25 27.75ZM38.1 34.1 36.35 32.35Q38.8 29.9 40.15 26.525Q41.5 23.15 41.5 20Q41.5 16.85 40.15 13.475Q38.8 10.1 36.35 7.65L38.1 5.9Q41.1 8.8 42.55 12.55Q44 16.3 44 20Q44 23.75 42.625 27.475Q41.25 31.2 38.1 34.1ZM9.9 34.1Q6.9 31.2 5.45 27.45Q4 23.7 4 20Q4 16.3 5.45 12.55Q6.9 8.8 9.9 5.9L11.65 7.65Q9.15 10.1 7.825 13.475Q6.5 16.85 6.5 20Q6.5 23.15 7.825 26.525Q9.15 29.9 11.65 32.35ZM33.5 29.5 31.75 27.75Q33.2 26.3 34.05 24.125Q34.9 21.95 34.9 20Q34.9 18.25 34.025 16.025Q33.15 13.8 31.75 12.25L33.5 10.5Q35.45 12.35 36.425 14.975Q37.4 17.6 37.4 20Q37.4 22.35 36.425 25Q35.45 27.65 33.5 29.5ZM14.7 44 21.35 23.75Q20.5 23.15 19.975 22.2Q19.45 21.25 19.45 20Q19.45 18.1 20.775 16.775Q22.1 15.45 24 15.45Q25.9 15.45 27.225 16.775Q28.55 18.1 28.55 20Q28.55 21.25 28.025 22.2Q27.5 23.15 26.65 23.75L33.3 44H30.35L28.9 39.5H19.15L17.65 44ZM20.1 36.5H27.9L24 24.6Z"/></svg>
<svg xmlns="http://www.w3.org/2000/svg" height="50" width="50" viewBox="-7 -15 60 60"><path d="M6.45 27 21.5 5.1V27ZM12.2 24H18.5V14.65ZM25.7 27Q26.65 24 27.075 20.975Q27.5 17.95 27.5 14.5Q27.5 11.2 27.075 8.075Q26.65 4.95 25.7 2.1Q28.05 3.05 30.75 5.425Q33.45 7.8 35.8 11.15Q38.15 14.5 39.75 18.575Q41.35 22.65 41.5 27ZM29.45 24H38.2Q37.35 19.65 35.075 15.6Q32.8 11.55 30.1 8.9Q30.35 10.4 30.425 11.85Q30.5 13.3 30.5 14.5Q30.5 16.8 30.175 19.45Q29.85 22.1 29.45 24ZM18 38.2Q16.3 38.2 14.75 37.275Q13.2 36.35 12 34.95Q11.3 35.65 10.325 36.325Q9.35 37 8.45 37.35Q7 36.45 5.75 34.675Q4.5 32.9 4.1 31H43.9Q43.5 32.9 42.25 34.675Q41 36.45 39.55 37.35Q38.65 37 37.675 36.325Q36.7 35.65 36 34.95Q34.8 36.35 33.25 37.275Q31.7 38.2 30 38.2Q28.3 38.2 26.75 37.275Q25.2 36.35 24 34.95Q22.8 36.35 21.25 37.275Q19.7 38.2 18 38.2ZM4 46V43H6Q7.6 43 9.075 42.475Q10.55 41.95 12 40.55Q13.45 41.95 14.95 42.475Q16.45 43 18 43Q19.6 43 21.075 42.475Q22.55 41.95 24 40.55Q25.45 41.95 26.95 42.475Q28.45 43 30 43Q31.6 43 33.075 42.475Q34.55 41.95 36 40.55Q37.45 41.95 38.925 42.475Q40.4 43 42 43H44V46H42Q40.55 46 39.025 45.575Q37.5 45.15 36 44Q34.5 45.15 32.975 45.575Q31.45 46 30 46Q28.55 46 27.025 45.575Q25.5 45.15 24 44Q22.5 45.15 20.975 45.575Q19.45 46 18 46Q16.55 46 15.025 45.575Q13.5 45.15 12 44Q10.5 45.15 8.975 45.575Q7.45 46 6 46ZM18.5 24ZM29.45 24Q29.45 24 29.45 24Q29.45 24 29.45 24Q29.45 24 29.45 24Q29.45 24 29.45 24Q29.45 24 29.45 24Q29.45 24 29.45 24Z"/></svg>
</svg>