<svg xmlns="http://www.w3.org/2000/svg" height="60" width="60" viewBox="0 0 60 60">
<svg xmlns="http://www.w3.org/2000/svg" height="30" width="30" viewBox="0 0 60 60"><path d="M10.65 39.25Q8.45 37 7.225 34.05Q6 31.1 6 28Q6 24.35 7.275 21.325Q8.55 18.3 11.1 15.75Q12.85 14 15.45 12.8Q18.05 11.6 21.575 10.925Q25.1 10.25 29.55 10.075Q34 9.9 39.45 10.25Q39.85 15.65 39.725 20.125Q39.6 24.6 38.925 28.15Q38.25 31.7 37.025 34.375Q35.8 37.05 34 38.85Q31.45 41.4 28.5 42.7Q25.55 44 22.2 44Q18.75 44 15.875 42.825Q13 41.65 10.65 39.25ZM15.8 39.25Q17.05 40.1 18.7 40.55Q20.35 41 22.2 41Q24.85 41 27.35 39.9Q29.85 38.8 31.9 36.7Q33.25 35.35 34.2 33.175Q35.15 31 35.75 28.025Q36.35 25.05 36.55 21.3Q36.75 17.55 36.55 13.05Q31.85 12.95 28.125 13.175Q24.4 13.4 21.55 14Q18.7 14.6 16.65 15.525Q14.6 16.45 13.3 17.8Q11.2 19.95 10.1 22.35Q9 24.75 9 27.25Q9 29.65 10.025 32.275Q11.05 34.9 12.55 36.5Q15.2 31.6 18.9 27.7Q22.6 23.8 26.75 21.55Q22.4 25.3 19.7 29.675Q17 34.05 15.8 39.25ZM15.8 39.25Q15.8 39.25 15.8 39.25Q15.8 39.25 15.8 39.25Q15.8 39.25 15.8 39.25Q15.8 39.25 15.8 39.25Q15.8 39.25 15.8 39.25Q15.8 39.25 15.8 39.25Q15.8 39.25 15.8 39.25Q15.8 39.25 15.8 39.25Q15.8 39.25 15.8 39.25Q15.8 39.25 15.8 39.25ZM15.8 39.25Q15.8 39.25 15.8 39.25Q15.8 39.25 15.8 39.25Q15.8 39.25 15.8 39.25Q15.8 39.25 15.8 39.25Q15.8 39.25 15.8 39.25Q15.8 39.25 15.8 39.25Q15.8 39.25 15.8 39.25Q15.8 39.25 15.8 39.25Q15.8 39.25 15.8 39.25Q15.8 39.25 15.8 39.25Q15.8 39.25 15.8 39.25Q15.8 39.25 15.8 39.25Q15.8 39.25 15.8 39.25Q15.8 39.25 15.8 39.25Q15.8 39.25 15.8 39.25Q15.8 39.25 15.8 39.25Q15.8 39.25 15.8 39.25Q15.8 39.25 15.8 39.25Q15.8 39.25 15.8 39.25Q15.8 39.25 15.8 39.25Z"/></svg>
<svg xmlns="http://www.w3.org/2000/svg" height="50" width="50" viewBox="-7 -15 60 60"><path d="M6.45 27 21.5 5.1V27ZM12.2 24H18.5V14.65ZM25.7 27Q26.65 24 27.075 20.975Q27.5 17.95 27.5 14.5Q27.5 11.2 27.075 8.075Q26.65 4.95 25.7 2.1Q28.05 3.05 30.75 5.425Q33.45 7.8 35.8 11.15Q38.15 14.5 39.75 18.575Q41.35 22.65 41.5 27ZM29.45 24H38.2Q37.35 19.65 35.075 15.6Q32.8 11.55 30.1 8.9Q30.35 10.4 30.425 11.85Q30.5 13.3 30.5 14.5Q30.5 16.8 30.175 19.45Q29.85 22.1 29.45 24ZM18 38.2Q16.3 38.2 14.75 37.275Q13.2 36.35 12 34.95Q11.3 35.65 10.325 36.325Q9.35 37 8.45 37.35Q7 36.45 5.75 34.675Q4.5 32.9 4.1 31H43.9Q43.5 32.9 42.25 34.675Q41 36.45 39.55 37.35Q38.65 37 37.675 36.325Q36.7 35.65 36 34.95Q34.8 36.35 33.25 37.275Q31.7 38.2 30 38.2Q28.3 38.2 26.75 37.275Q25.2 36.35 24 34.95Q22.8 36.35 21.25 37.275Q19.7 38.2 18 38.2ZM4 46V43H6Q7.6 43 9.075 42.475Q10.55 41.95 12 40.55Q13.45 41.95 14.95 42.475Q16.45 43 18 43Q19.6 43 21.075 42.475Q22.55 41.95 24 40.55Q25.45 41.95 26.95 42.475Q28.45 43 30 43Q31.6 43 33.075 42.475Q34.55 41.95 36 40.55Q37.45 41.95 38.925 42.475Q40.4 43 42 43H44V46H42Q40.55 46 39.025 45.575Q37.5 45.15 36 44Q34.5 45.15 32.975 45.575Q31.45 46 30 46Q28.55 46 27.025 45.575Q25.5 45.15 24 44Q22.5 45.15 20.975 45.575Q19.45 46 18 46Q16.55 46 15.025 45.575Q13.5 45.15 12 44Q10.5 45.15 8.975 45.575Q7.45 46 6 46ZM18.5 24ZM29.45 24Q29.45 24 29.45 24Q29.45 24 29.45 24Q29.45 24 29.45 24Q29.45 24 29.45 24Q29.45 24 29.45 24Q29.45 24 29.45 24Z"/></svg>
</svg>